<svg width="303" height="356" viewBox="0 0 303 356" fill="none" xmlns="http://www.w3.org/2000/svg">
<path fill-rule="evenodd" clip-rule="evenodd" d="M206.305 0.999613C206.052 1.5494 204.861 1.99923 203.657 1.99923C202.453 1.99923 201.464 2.33709 201.46 2.74894C201.455 3.16078 200.124 4.35232 198.502 5.39591C193.829 8.40275 188.237 17.9331 186.655 25.5811C185.613 30.6251 185.62 41.374 186.669 46.482C187.684 51.4201 192.861 61.0574 195.859 63.5914C208.567 74.3292 216.82 74.7301 227.356 65.1208C237.309 56.0423 241.403 42.0287 238.06 28.489C237.245 25.1902 236.07 20.9169 235.449 18.9926C233.018 11.4566 224.298 1.99923 219.779 1.99923C218.761 1.99923 217.722 1.5494 217.469 0.999613C217.216 0.449826 214.704 0 211.887 0C209.07 0 206.559 0.449826 206.305 0.999613ZM222.698 10.0091C229.551 14.4654 233.469 24.1167 233.469 36.5418C233.469 48.3613 229.623 56.9899 222.425 61.3182C216.087 65.1288 211.709 65.5896 206.073 63.0396C199.437 60.0357 196.834 57.4238 193.643 50.5664C191.431 45.8133 190.776 43.2862 190.482 38.3581C190.155 32.8903 190.393 31.3229 192.468 25.3182C195.61 16.2157 200.958 9.72624 207.05 7.61805C210.337 6.48049 219.401 7.86495 222.698 10.0091ZM131.345 35.2364C129.927 37.5734 128.35 40.5423 127.84 41.8348C126.95 44.0939 119.673 57.9486 118.836 58.9772C117.53 60.5845 96.2443 98.9127 93.9596 103.773C92.748 106.35 91.4925 108.608 91.1688 108.791C90.845 108.975 90.5801 109.567 90.5801 110.107C90.5801 111.246 87.4075 117.107 84.4381 121.453C83.3113 123.102 82.201 125.238 81.9695 126.201C81.4203 128.485 78.3013 128.474 77.0406 126.184C76.5055 125.213 75.2307 123.674 74.2074 122.766C73.1841 121.859 70.5719 118.83 68.4017 116.036C65.8335 112.729 63.8151 110.957 62.6177 110.957C60.2749 110.957 55.0096 117.277 43.0218 134.473C31.7968 150.575 27.0271 157.037 22.1272 162.781C17.2712 168.474 10.193 177.195 6.48605 182.053C5.38461 183.497 3.60743 185.449 2.53576 186.392C0.102924 188.533 -0.714225 191.682 0.677456 193.551C1.54744 194.72 8.06751 194.951 39.6393 194.929C89.3871 194.896 122.581 195.868 122.581 197.361C122.581 197.98 120.991 199.068 119.046 199.78C115.703 201.002 110.531 203.56 102.115 208.155C96.1974 211.387 83.1379 220.107 83.1379 220.826C83.1379 221.187 82.1131 222.296 80.8599 223.291C77.2929 226.12 74.2074 232.536 74.2074 237.124C74.2074 242.206 75.1131 244.42 79.4824 250.01C82.6869 254.113 88.1502 258.455 93.5569 261.198C94.5802 261.718 96.2636 262.728 97.2974 263.444C98.3318 264.161 101.438 265.889 104.201 267.285C109.261 269.844 120.754 277.258 125.529 281.043C128.7 283.557 129.762 285.35 130.851 290.029C131.593 293.215 131.49 294.165 130.022 297.675C129.1 299.879 127.467 302.28 126.393 303.012C125.32 303.743 123.437 305.301 122.209 306.473C120.137 308.453 105.942 317.877 105.033 317.877C104.81 317.877 102.891 318.952 100.767 320.267C98.6437 321.581 94.5854 323.878 91.7492 325.369C88.9123 326.86 86.0657 328.446 85.4234 328.892C84.7804 329.338 82.9147 330.469 81.2774 331.405C79.6401 332.339 76.2912 334.336 73.8353 335.839C71.3793 337.342 67.7826 339.538 65.8431 340.72C63.903 341.901 61.8742 342.867 61.3339 342.867C60.7936 342.867 59.7019 343.528 58.907 344.335C58.113 345.142 56.9393 345.817 56.3001 345.834C55.6608 345.852 53.7511 346.766 52.0565 347.865C50.362 348.965 48.6369 349.865 48.2216 349.865C47.2601 349.865 45.8267 353.395 46.4496 354.232C47.2988 355.372 50.6909 354.894 55.6042 352.94C61.1814 350.722 65.4852 348.606 66.021 347.818C66.5553 347.032 74.2587 342.867 75.1786 342.867C75.6028 342.867 76.4794 342.261 77.1254 341.522C77.7721 340.781 80.6448 338.941 83.51 337.431C86.3753 335.922 89.0544 334.34 89.4638 333.914C89.8731 333.488 92.4987 331.924 95.2991 330.438C98.0989 328.953 101.455 326.933 102.757 325.952C104.059 324.969 107.795 322.901 111.062 321.355C114.327 319.808 117.111 318.169 117.248 317.71C117.384 317.252 117.954 316.877 118.513 316.877C120.07 316.877 129.661 309.906 132.636 306.612C139.424 299.097 140.168 286.092 134.206 279.17C131.578 276.119 127.19 272.542 124.07 270.907C122.637 270.155 119.052 268.047 116.104 266.22C113.155 264.393 110.379 262.898 109.935 262.898C108.774 262.898 97.2698 255.856 94.9308 253.712C93.8442 252.717 92.5887 251.902 92.1414 251.902C91.6942 251.902 89.6401 250.274 87.5779 248.284C80.4975 241.451 80.1715 235.929 86.3723 227.858C92.8016 219.49 103.267 213.357 125.558 204.896C128.628 203.73 133.62 201.679 136.649 200.336C139.68 198.995 142.309 198.097 142.492 198.343C143.197 199.29 141.885 200.622 138.981 201.91C137.317 202.648 135.585 203.851 135.131 204.586C134.678 205.319 133.877 205.92 133.352 205.92C131.568 205.92 126.285 210.296 122.282 215.088C112.19 227.169 114.724 238.546 128.815 244.419C132.14 245.806 135.531 247.352 136.349 247.858C137.168 248.363 140.349 249.749 143.419 250.94C146.489 252.13 149.671 253.499 150.489 253.981C153.041 255.481 158.488 257.579 163.141 258.854C165.597 259.526 168.188 260.486 168.898 260.987C169.609 261.489 170.733 261.899 171.396 261.899C172.927 261.899 185.042 266.659 186.759 267.935C187.47 268.464 188.874 268.896 189.878 268.896C190.883 268.896 191.912 269.346 192.165 269.895C192.418 270.445 193.423 270.895 194.398 270.895C195.373 270.895 196.353 271.291 196.576 271.775C196.798 272.259 198.743 273.427 200.899 274.371C210.472 278.564 220.867 287.237 224.586 294.131C228.477 301.347 227.09 311.218 221.071 319.14C215.933 325.904 207.976 333.068 200.538 337.629C199.003 338.57 197.747 339.684 197.747 340.104C197.747 340.524 197.391 340.868 196.957 340.868C195.771 340.868 187.737 346.081 187.452 347.036C187.315 347.492 186.678 347.865 186.034 347.865C183.077 347.865 178.069 355.646 180.816 355.973C184.181 356.373 192.857 352.252 198.391 347.622C199.875 346.382 202.346 344.602 203.883 343.666C205.42 342.73 206.678 341.494 206.678 340.917C206.678 340.34 207.047 339.868 207.498 339.868C207.949 339.868 211.571 336.969 215.546 333.426C223.36 326.462 230.024 318.436 230.832 315.017C231.109 313.84 231.633 312.879 231.996 312.879C232.839 312.879 234.211 306.293 234.184 302.383C234.144 296.71 230.183 288.011 226.137 284.71C224.644 283.492 223.255 282.207 223.05 281.852C221.835 279.75 202.448 267.896 200.224 267.896C199.68 267.896 199.235 267.467 199.235 266.944C199.235 266.42 198.147 265.574 196.817 265.064C194.564 264.202 184.367 258.967 181.002 256.945C179.453 256.015 176.759 255.139 172.623 254.22C171.289 253.924 170.013 253.281 169.788 252.792C169.563 252.302 167.959 251.902 166.223 251.902C164.487 251.902 162.749 251.476 162.36 250.955C161.734 250.116 158.215 249.031 150.297 247.234C148.962 246.931 147.687 246.284 147.462 245.795C147.236 245.305 146.349 244.905 145.487 244.905C143.174 244.905 128.473 237.976 126.215 235.821C125.143 234.798 123.861 232.646 123.365 231.04C121.999 226.611 123.81 222.405 130.028 215.561C130.954 214.54 136.942 210.103 143.334 205.7C149.725 201.297 155.876 197.039 157.001 196.236C158.126 195.434 159.048 194.18 159.048 193.45C159.048 191.839 155.231 189.926 152.016 189.926C150.726 189.926 149.352 189.548 148.964 189.085C148.575 188.622 145.912 187.423 143.047 186.421C140.182 185.418 137.335 184.267 136.721 183.862C136.107 183.457 132.926 181.395 129.651 179.279C126.377 177.163 123.586 175.095 123.45 174.682C123.313 174.27 122.587 173.933 121.837 173.933C121.087 173.933 120.361 173.585 120.224 173.159C120.088 172.733 117.064 169.796 113.504 166.633C103.945 158.138 84.8206 133.973 85.8506 131.69C87.2773 128.525 95.3512 113.641 98.0051 109.284C98.3981 108.638 100.749 103.915 103.229 98.7877C109.465 85.8977 109.38 86.0617 111.046 83.5097C111.865 82.2551 113.204 79.971 114.023 78.4346C114.841 76.8982 115.846 75.1469 116.255 74.5431C116.665 73.9394 118.16 71.2014 119.578 68.4605C120.996 65.7186 122.589 62.8776 123.118 62.1479C123.647 61.4182 124.452 59.8858 124.908 58.7422C125.898 56.2572 133.924 42.8584 135.424 41.186C136.734 39.7256 137.605 40.8152 142.913 50.5584C150.753 64.9458 153.886 71.6752 159.165 85.4639C161.58 91.7725 163.773 96.3337 164.306 96.1608C164.817 95.9938 167.306 95.599 169.839 95.2811C173.425 94.8313 174.533 95.0172 174.849 96.1238C175.516 98.4579 183.733 112.956 184.388 112.956C184.722 112.956 185.203 113.833 185.456 114.905C185.709 115.976 186.834 118.173 187.956 119.787C189.078 121.4 190.898 124.308 192 126.248C193.102 128.189 194.427 130.39 194.945 131.139C195.463 131.889 196.678 134.004 197.647 135.839L199.407 139.177L197.647 141.31C196.678 142.484 194.631 144.704 193.096 146.244C191.561 147.784 190.305 149.41 190.305 149.859C190.305 150.792 194.736 149.738 198.305 147.956C199.636 147.291 200.724 146.341 200.724 145.846C200.724 143.796 203.892 145.164 206.157 148.193C208.931 151.899 211.358 153.94 212.993 153.94C214.598 153.94 214.438 153.274 211.515 147.81C210.082 145.132 208.91 142.491 208.91 141.943C208.91 141.394 208.547 140.945 208.104 140.945C206.603 140.945 207.777 139.193 213.748 132.518C217.022 128.856 220.484 124.982 221.439 123.907C222.395 122.832 223.483 121.953 223.858 121.953C224.232 121.953 224.539 121.575 224.539 121.114C224.539 120.652 225.395 119.751 226.442 119.11C228.719 117.716 229.892 118.431 233.429 123.37C234.84 125.339 236.253 126.951 236.569 126.951C236.885 126.951 238.243 128.306 239.586 129.964C240.929 131.62 244.54 135.709 247.609 139.05C250.679 142.391 254.865 147.078 256.912 149.467C258.959 151.856 261.364 154.627 262.257 155.625C263.15 156.622 265.466 159.238 267.404 161.437C269.342 163.637 271.605 166.084 272.433 166.874C273.261 167.666 274.511 169.016 275.211 169.873C278.264 173.616 288.446 184.34 294.257 189.931C297.28 192.84 302.081 194.04 302.969 192.108C303.474 191.012 297.612 182.929 296.315 182.929C296.096 182.929 295.015 181.805 293.912 180.43C292.809 179.056 291.627 177.931 291.287 177.931C290.946 177.931 290.245 177.369 289.727 176.682C289.21 175.995 287.857 174.532 286.721 173.433C285.585 172.333 284.214 170.872 283.675 170.184C283.135 169.497 282.455 168.935 282.163 168.935C281.674 168.935 275.286 161.946 271.796 157.593C270.978 156.571 269.156 154.544 267.747 153.089C266.339 151.633 264.445 149.542 263.539 148.443C262.633 147.343 261.441 145.972 260.89 145.398C252.87 137.025 249.842 133.647 249.842 133.072C249.842 132.692 248.921 131.629 247.795 130.711C246.67 129.794 242.797 125.199 239.189 120.5C235.582 115.801 232.352 111.957 232.013 111.957C231.674 111.957 231.203 111.282 230.967 110.457C230.025 107.158 227.431 108.788 220.486 117.045C213.964 124.8 206.27 131.949 204.45 131.943C202.368 131.936 198.514 126.574 191.522 113.956C189.238 109.832 187.025 105.915 186.604 105.251C186.183 104.588 185.84 103.747 185.84 103.384C185.84 103.021 184.918 101.24 183.793 99.4255C182.668 97.6122 180.586 94.0096 179.168 91.4196L176.59 86.7124L171.523 87.2832L166.456 87.853L164.455 83.6616C161.909 78.3307 160.122 74.1393 159.053 70.9925C158.589 69.63 157.96 68.2806 157.654 67.9937C157.037 67.4179 148.881 50.8763 147.338 47.0718C146.8 45.7463 145.531 43.5481 144.518 42.1867C143.504 40.8262 142.675 39.3388 142.675 38.8829C142.675 38.4281 141.635 36.4649 140.365 34.5216C137.106 29.5356 134.69 29.7265 131.345 35.2364ZM67.6813 122.453C69.6036 124.927 71.3563 126.951 71.5766 126.951C71.7961 126.951 73.2376 128.638 74.7797 130.699C81.0951 139.144 93.673 154.571 98.8357 160.206C104.671 166.574 113.338 174.923 114.118 174.927C114.58 174.93 115.394 175.64 115.929 176.505C116.463 177.369 118.262 179.005 119.927 180.137C121.592 181.271 123.121 182.475 123.326 182.813C123.53 183.152 124.954 184.287 126.488 185.335C128.024 186.385 129.279 187.621 129.279 188.084C129.279 188.894 126.401 189.435 124.07 189.064C123.456 188.967 97.761 188.757 66.9699 188.599C36.1787 188.44 10.8263 188.095 10.6306 187.832C10.2257 187.289 13.6469 182.532 19.1891 175.932C24.8406 169.201 48.3928 137.545 55.5179 127.102C58.951 122.071 62.3059 117.954 62.9727 117.954C63.6403 117.954 65.759 119.979 67.6813 122.453ZM73.6492 144.03C69.3491 149.553 69.6587 150.06 74.2074 144.944C76.2539 142.643 77.9284 140.577 77.9284 140.353C77.9284 139.152 76.4735 140.403 73.6492 144.03ZM145.652 197.365C145.652 198.419 144.224 198.863 143.799 197.939C143.542 197.381 143.854 196.924 144.492 196.924C145.13 196.924 145.652 197.122 145.652 197.365Z" fill="#C4986C"/>
</svg>
